<svg xmlns="http://www.w3.org/2000/svg" width="49.244" height="69.453" viewBox="0 0 49.244 69.453">
  <g id="Group_6647" data-name="Group 6647" transform="translate(-7001.388 -4949.758)">
    <path id="Path_28163" data-name="Path 28163" d="M7042.815,4977.567a17.542,17.542,0,1,0-35.085,0c0,3.611,1.989,6.966,4.436,9.754,2.273,2.592,3.262,9.837,3.262,9.837l19.636-.033s.889-7.185,3.291-9.909C7040.807,4984.44,7042.815,4981.112,7042.815,4977.567Z" transform="translate(0.982 1.821)" fill="none" stroke="#040f26" stroke-linecap="round" stroke-miterlimit="10" stroke-width="2"/>
    <line id="Line_975" data-name="Line 975" x2="21.4" transform="translate(7015.375 5002.994)" fill="none" stroke="#040f26" stroke-linecap="round" stroke-miterlimit="10" stroke-width="2"/>
    <path id="Rectangle_1885" data-name="Rectangle 1885" d="M0,0H19.332a0,0,0,0,1,0,0V4.56A2.83,2.83,0,0,1,16.5,7.39H2.83A2.83,2.83,0,0,1,0,4.56V0A0,0,0,0,1,0,0Z" transform="translate(7016.548 5007.433)" fill="none" stroke="#040f26" stroke-linecap="round" stroke-miterlimit="10" stroke-width="2"/>
    <path id="Path_28164" data-name="Path 28164" d="M7025.493,5004.931v.49a2.142,2.142,0,0,1-2.142,2.142h-.865a2.143,2.143,0,0,1-2.142-2.142v-.49" transform="translate(3.461 10.649)" fill="none" stroke="#040f26" stroke-linecap="round" stroke-miterlimit="10" stroke-width="2"/>
    <path id="Path_28165" data-name="Path 28165" d="M7012.575,4975.15a10.915,10.915,0,0,1,19.937-6.142" transform="translate(1.933 2.649)" fill="none" stroke="#19afff" stroke-linecap="round" stroke-miterlimit="10" stroke-width="2"/>
    <line id="Line_976" data-name="Line 976" y2="5.623" transform="translate(7026.255 4950.758)" fill="none" stroke="#19afff" stroke-linecap="round" stroke-miterlimit="10" stroke-width="2"/>
    <line id="Line_977" data-name="Line 977" x1="1.826" y2="5.319" transform="translate(7034.146 4952.361)" fill="none" stroke="#19afff" stroke-linecap="round" stroke-miterlimit="10" stroke-width="2"/>
    <line id="Line_978" data-name="Line 978" x1="3.454" y2="4.437" transform="translate(7040.055 4956.644)" fill="none" stroke="#19afff" stroke-linecap="round" stroke-miterlimit="10" stroke-width="2"/>
    <line id="Line_979" data-name="Line 979" x1="4.708" y2="3.075" transform="translate(7044.54 4964.338)" fill="none" stroke="#19afff" stroke-linecap="round" stroke-miterlimit="10" stroke-width="2"/>
    <line id="Line_980" data-name="Line 980" x2="4.972" y2="2.627" transform="translate(7002.739 4964.793)" fill="none" stroke="#19afff" stroke-linecap="round" stroke-miterlimit="10" stroke-width="2"/>
    <line id="Line_981" data-name="Line 981" x2="3.849" y2="4.099" transform="translate(7008.137 4956.813)" fill="none" stroke="#19afff" stroke-linecap="round" stroke-miterlimit="10" stroke-width="2"/>
    <line id="Line_982" data-name="Line 982" x2="2.31" y2="5.127" transform="translate(7016.641 4952.149)" fill="none" stroke="#19afff" stroke-linecap="round" stroke-miterlimit="10" stroke-width="2"/>
  </g>
</svg>