<svg xmlns="http://www.w3.org/2000/svg" width="72.046" height="76.137" viewBox="0 0 72.046 76.137">
  <g id="Group_6679" data-name="Group 6679" transform="translate(-6755.729 -5920.897)">
    <path id="Path_28265" data-name="Path 28265" d="M6832.846,6024.228h-31.574s-.737-12.875-6.983-17.609c-14.421-10.929-23.377-43.718,6.375-55.1,27.033-7.007,44.515,15.544,41.9,27.4l7.894,15.108-7.894,1.821.456,11.727h0a6.111,6.111,0,0,1-4.87,7.011l-5.3,1.281Z" transform="translate(-24.165 -28.194)" fill="none" stroke="#000" stroke-linecap="round" stroke-miterlimit="10" stroke-width="2"/>
    <rect id="Rectangle_1891" data-name="Rectangle 1891" width="12.697" height="13.444" transform="translate(6779.458 5944.916)" fill="none" stroke="#19afff" stroke-miterlimit="10" stroke-width="2"/>
    <line id="Line_995" data-name="Line 995" y2="4.73" transform="translate(6780.371 5934.405)" fill="none" stroke="#19afff" stroke-linecap="round" stroke-miterlimit="10" stroke-width="2"/>
    <line id="Line_996" data-name="Line 996" y2="4.73" transform="translate(6785.599 5934.405)" fill="none" stroke="#19afff" stroke-linecap="round" stroke-miterlimit="10" stroke-width="2"/>
    <line id="Line_997" data-name="Line 997" y2="4.73" transform="translate(6791.076 5934.405)" fill="none" stroke="#19afff" stroke-linecap="round" stroke-miterlimit="10" stroke-width="2"/>
    <line id="Line_998" data-name="Line 998" y2="4.73" transform="translate(6780.371 5964.003)" fill="none" stroke="#19afff" stroke-linecap="round" stroke-miterlimit="10" stroke-width="2"/>
    <line id="Line_999" data-name="Line 999" y2="4.73" transform="translate(6785.599 5964.003)" fill="none" stroke="#19afff" stroke-linecap="round" stroke-miterlimit="10" stroke-width="2"/>
    <line id="Line_1000" data-name="Line 1000" y2="4.73" transform="translate(6791.076 5964.003)" fill="none" stroke="#19afff" stroke-linecap="round" stroke-miterlimit="10" stroke-width="2"/>
    <line id="Line_1001" data-name="Line 1001" x1="4.73" transform="translate(6796.83 5946.451)" fill="none" stroke="#19afff" stroke-linecap="round" stroke-miterlimit="10" stroke-width="2"/>
    <line id="Line_1002" data-name="Line 1002" x1="4.73" transform="translate(6796.83 5951.679)" fill="none" stroke="#19afff" stroke-linecap="round" stroke-miterlimit="10" stroke-width="2"/>
    <line id="Line_1003" data-name="Line 1003" x1="4.73" transform="translate(6796.83 5957.156)" fill="none" stroke="#19afff" stroke-linecap="round" stroke-miterlimit="10" stroke-width="2"/>
    <line id="Line_1004" data-name="Line 1004" x1="4.73" transform="translate(6770.135 5946.451)" fill="none" stroke="#19afff" stroke-linecap="round" stroke-miterlimit="10" stroke-width="2"/>
    <line id="Line_1005" data-name="Line 1005" x1="4.73" transform="translate(6770.135 5951.679)" fill="none" stroke="#19afff" stroke-linecap="round" stroke-miterlimit="10" stroke-width="2"/>
    <line id="Line_1006" data-name="Line 1006" x1="4.73" transform="translate(6770.135 5957.156)" fill="none" stroke="#19afff" stroke-linecap="round" stroke-miterlimit="10" stroke-width="2"/>
  </g>
</svg>