<svg xmlns="http://www.w3.org/2000/svg" width="109.298" height="109.298" viewBox="0 0 109.298 109.298">
  <g id="Group_6671" data-name="Group 6671" transform="translate(-5114.991 -5499.718)">
    <g id="Ellipse_11560" data-name="Ellipse 11560" transform="translate(5156.821 5541.692)" fill="none" stroke="#19afff" stroke-miterlimit="10" stroke-width="2">
      <circle cx="12.819" cy="12.819" r="12.819" stroke="none"/>
      <circle cx="12.819" cy="12.819" r="11.819" fill="none"/>
    </g>
    <g id="Ellipse_11561" data-name="Ellipse 11561" transform="translate(5164.068 5499.718)" fill="none" stroke="#19afff" stroke-miterlimit="10" stroke-width="2">
      <circle cx="5.572" cy="5.572" r="5.572" stroke="none"/>
      <circle cx="5.572" cy="5.572" r="4.572" fill="none"/>
    </g>
    <g id="Ellipse_11562" data-name="Ellipse 11562" transform="translate(5164.068 5597.872)" fill="none" stroke="#19afff" stroke-miterlimit="10" stroke-width="2">
      <circle cx="5.572" cy="5.572" r="5.572" stroke="none"/>
      <circle cx="5.572" cy="5.572" r="4.572" fill="none"/>
    </g>
    <g id="Ellipse_11563" data-name="Ellipse 11563" transform="translate(5198.771 5514.092)" fill="none" stroke="#19afff" stroke-miterlimit="10" stroke-width="2">
      <circle cx="5.572" cy="5.572" r="5.572" stroke="none"/>
      <circle cx="5.572" cy="5.572" r="4.572" fill="none"/>
    </g>
    <g id="Ellipse_11564" data-name="Ellipse 11564" transform="translate(5129.365 5583.498)" fill="none" stroke="#19afff" stroke-miterlimit="10" stroke-width="2">
      <circle cx="5.572" cy="5.572" r="5.572" stroke="none"/>
      <circle cx="5.572" cy="5.572" r="4.572" fill="none"/>
    </g>
    <g id="Ellipse_11565" data-name="Ellipse 11565" transform="translate(5213.145 5548.795)" fill="none" stroke="#19afff" stroke-miterlimit="10" stroke-width="2">
      <circle cx="5.572" cy="5.572" r="5.572" stroke="none"/>
      <circle cx="5.572" cy="5.572" r="4.572" fill="none"/>
    </g>
    <g id="Ellipse_11566" data-name="Ellipse 11566" transform="translate(5114.991 5548.795)" fill="none" stroke="#19afff" stroke-miterlimit="10" stroke-width="2">
      <circle cx="5.572" cy="5.572" r="5.572" stroke="none"/>
      <circle cx="5.572" cy="5.572" r="4.572" fill="none"/>
    </g>
    <g id="Ellipse_11567" data-name="Ellipse 11567" transform="translate(5198.771 5583.498)" fill="none" stroke="#19afff" stroke-miterlimit="10" stroke-width="2">
      <circle cx="5.572" cy="5.572" r="5.572" stroke="none"/>
      <circle cx="5.572" cy="5.572" r="4.572" fill="none"/>
    </g>
    <g id="Ellipse_11568" data-name="Ellipse 11568" transform="translate(5129.365 5514.092)" fill="none" stroke="#19afff" stroke-miterlimit="10" stroke-width="2">
      <circle cx="5.572" cy="5.572" r="5.572" stroke="none"/>
      <circle cx="5.572" cy="5.572" r="4.572" fill="none"/>
    </g>
    <g id="Group_6663" data-name="Group 6663" transform="translate(5161.642 5517.129)">
      <line id="Line_987" data-name="Line 987" y2="19.228" transform="translate(8.283 0)" fill="none" stroke="#000" stroke-miterlimit="10" stroke-width="2"/>
      <path id="Path_28208" data-name="Path 28208" d="M5219.874,5562.807l8.283,8.652,8.468-8.652" transform="translate(-5219.874 -5552.157)" fill="none" stroke="#000" stroke-miterlimit="10" stroke-width="2"/>
    </g>
    <g id="Group_6664" data-name="Group 6664" transform="translate(5182.44 5528.383)">
      <line id="Line_988" data-name="Line 988" x1="13.53" y2="13.662" transform="translate(0.052 0)" fill="none" stroke="#000" stroke-miterlimit="10" stroke-width="2"/>
      <path id="Path_28209" data-name="Path 28209" d="M5266.838,5568.073l-.2,11.976,12.105-.19" transform="translate(-5266.635 -5566.334)" fill="none" stroke="#000" stroke-miterlimit="10" stroke-width="2"/>
    </g>
    <g id="Group_6665" data-name="Group 6665" transform="translate(5187.346 5546.563)">
      <line id="Line_989" data-name="Line 989" x1="19.227" y2="0.187" transform="translate(0.074 8.179)" fill="none" stroke="#000" stroke-miterlimit="10" stroke-width="2"/>
      <path id="Path_28210" data-name="Path 28210" d="M5286.236,5605.04l-8.572,8.367,8.734,8.383" transform="translate(-5277.665 -5605.04)" fill="none" stroke="#000" stroke-miterlimit="10" stroke-width="2"/>
    </g>
    <g id="Group_6666" data-name="Group 6666" transform="translate(5181.802 5567.5)">
      <line id="Line_990" data-name="Line 990" x1="13.793" y1="13.397" transform="translate(0.053 0.051)" fill="none" stroke="#000" stroke-miterlimit="10" stroke-width="2"/>
      <path id="Path_28211" data-name="Path 28211" d="M5277.177,5652.2l-11.977-.087.306,12.1" transform="translate(-5265.2 -5652.111)" fill="none" stroke="#000" stroke-miterlimit="10" stroke-width="2"/>
    </g>
    <g id="Group_6667" data-name="Group 6667" transform="translate(5160.719 5572.53)">
      <line id="Line_991" data-name="Line 991" x1="0.373" y1="19.225" transform="translate(8.3 0.074)" fill="none" stroke="#000" stroke-miterlimit="10" stroke-width="2"/>
      <path id="Path_28212" data-name="Path 28212" d="M5234.548,5671.91l-8.45-8.491-8.3,8.815" transform="translate(-5217.8 -5663.419)" fill="none" stroke="#000" stroke-miterlimit="10" stroke-width="2"/>
    </g>
    <g id="Group_6668" data-name="Group 6668" transform="translate(5143.081 5567.108)">
      <line id="Line_992" data-name="Line 992" y1="13.922" x2="13.263" transform="translate(0 0.054)" fill="none" stroke="#000" stroke-miterlimit="10" stroke-width="2"/>
      <path id="Path_28213" data-name="Path 28213" d="M5193,5663.208l-.029-11.978-12.1.424" transform="translate(-5179.66 -5651.23)" fill="none" stroke="#000" stroke-miterlimit="10" stroke-width="2"/>
    </g>
    <g id="Group_6669" data-name="Group 6669" transform="translate(5131.946 5546.161)">
      <line id="Line_993" data-name="Line 993" y1="0.56" x2="19.22" transform="translate(0 8.215)" fill="none" stroke="#000" stroke-miterlimit="10" stroke-width="2"/>
      <path id="Path_28214" data-name="Path 28214" d="M5176.977,5620.877l8.408-8.531-8.9-8.212" transform="translate(-5166.091 -5604.134)" fill="none" stroke="#000" stroke-miterlimit="10" stroke-width="2"/>
    </g>
    <g id="Group_6670" data-name="Group 6670" transform="translate(5142.435 5528.521)">
      <line id="Line_994" data-name="Line 994" x2="14.05" y2="13.127" transform="translate(0 0)" fill="none" stroke="#000" stroke-miterlimit="10" stroke-width="2"/>
      <path id="Path_28215" data-name="Path 28215" d="M5181.475,5579.148l11.977-.145-.542-12.094" transform="translate(-5179.347 -5565.826)" fill="none" stroke="#000" stroke-miterlimit="10" stroke-width="2"/>
    </g>
  </g>
</svg>