<svg xmlns="http://www.w3.org/2000/svg" width="81.248" height="96.166" viewBox="0 0 81.248 96.166">
  <g id="Group_6686" data-name="Group 6686" transform="translate(-4450.977 5471.523)">
    <g id="Group_6685" data-name="Group 6685" transform="translate(4451.985 -5470.406)">
      <path id="Path_28280" data-name="Path 28280" d="M4482.038-5451.759s-28.141,8.922-29.971,35.462,27.454,35.692,42.327,31.8c12.748-3.333,26.84-11.711,33.2-23.547a8.666,8.666,0,0,0-1.527-10.215h0a8.673,8.673,0,0,0-11.672-.54l-3.774,3.136a5.533,5.533,0,0,1-7.194-.108h0a5.532,5.532,0,0,1-.418-7.886l1.224-1.335" transform="translate(-4451.985 5477.67)" fill="none" stroke="#040f26" stroke-miterlimit="10" stroke-width="2"/>
      <path id="Path_28281" data-name="Path 28281" d="M4499.1-5431.162s4.461-4.976,3.89-10.752c-.457-4.6-4.691-11.726-17.845-10.983" transform="translate(-4439.071 5477.205)" fill="none" stroke="#040f26" stroke-miterlimit="10" stroke-width="2"/>
      <path id="Path_28282" data-name="Path 28282" d="M4507.905-5417.918l-30.028-38.781-5.663,4.119L4503.272-5415" transform="translate(-4444.105 5475.746)" fill="none" stroke="#040f26" stroke-miterlimit="10" stroke-width="2"/>
      <path id="Path_28283" data-name="Path 28283" d="M4506.223-5418.664l4.483,5.8a2.446,2.446,0,0,1-.25,3.269h0a2.446,2.446,0,0,1-3.511-.144l-3.982-4.464" transform="translate(-4432.127 5490.561)" fill="none" stroke="#040f26" stroke-miterlimit="10" stroke-width="2"/>
      <path id="Path_28284" data-name="Path 28284" d="M4481.563-5451.36s5.148-16.128-18.7-19.046c0,0-2.232,23.165,13.211,22.994Z" transform="translate(-4447.792 5470.406)" fill="none" stroke="#19afff" stroke-miterlimit="10" stroke-width="2"/>
    </g>
    <path id="Path_28285" data-name="Path 28285" d="M4489.613-5410.065c-1.831,5.108-9.522,3.061-8.816-2.32.544-4.164,1.976-9.213,5.684-10.008C4490.255-5423.2,4491.513-5415.361,4489.613-5410.065Z" transform="translate(11.206 18.681)" fill="none" stroke="#19afff" stroke-miterlimit="10" stroke-width="2"/>
    <path id="Path_28286" data-name="Path 28286" d="M4489.613-5415.1c-1.831,3.031-9.522,1.815-8.816-1.376.544-2.47,1.976-5.466,5.684-5.938C4490.255-5422.9,4491.513-5418.245,4489.613-5415.1Z" transform="matrix(0.438, 0.899, -0.899, 0.438, -2362.121, -7055.702)" fill="none" stroke="#040f26" stroke-miterlimit="10" stroke-width="2"/>
    <path id="Path_28287" data-name="Path 28287" d="M4489.613-5415.1c-1.831,3.031-9.522,1.815-8.816-1.376.544-2.47,1.976-5.466,5.684-5.938C4490.255-5422.9,4491.513-5418.245,4489.613-5415.1Z" transform="matrix(0.438, 0.899, -0.899, 0.438, -2362.121, -7076.702)" fill="none" stroke="#040f26" stroke-miterlimit="10" stroke-width="2"/>
  </g>
</svg>