<svg xmlns="http://www.w3.org/2000/svg" width="58.002" height="69.479" viewBox="0 0 58.002 69.479">
  <g id="Group_6683" data-name="Group 6683" transform="translate(-4361.804 5472.602)">
    <path id="Path_28269" data-name="Path 28269" d="M4397.7-5451.894a18.215,18.215,0,0,1,2.047,10.656c-.789,7.415-4.97,11.754-12.306,12.227,0,0-13.41-.315-12.148-15.461a17.428,17.428,0,0,1,2.2-7.721" fill="none" stroke="#040f26" stroke-miterlimit="10" stroke-width="2"/>
    <path id="Path_28270" data-name="Path 28270" d="M4402.509-5421.844a27.5,27.5,0,0,0-9.05-3.626v-4.892" fill="none" stroke="#040f26" stroke-miterlimit="10" stroke-width="2"/>
    <path id="Path_28271" data-name="Path 28271" d="M4382.336-5430.113v4.643a26.848,26.848,0,0,0-5.585,1.784c-4.6,2.019-10.493,6.089-11.3,13.835v5.728h44.885v-5.317" fill="none" stroke="#040f26" stroke-miterlimit="10" stroke-width="2"/>
    <path id="Path_28272" data-name="Path 28272" d="M4376.972-5423.577l6.619,6.855a6.325,6.325,0,0,0,8.977.125l6.886-6.743" fill="none" stroke="#040f26" stroke-miterlimit="10" stroke-width="2"/>
    <path id="Path_28273" data-name="Path 28273" d="M4401.611-5452.809l2.622,15.185a59.321,59.321,0,0,1-5.606,2.068" fill="none" stroke="#040f26" stroke-miterlimit="10" stroke-width="2"/>
    <path id="Path_28274" data-name="Path 28274" d="M4376.587-5435.267a46.941,46.941,0,0,1-6.106-2.357l1.367-15.684" fill="none" stroke="#040f26" stroke-miterlimit="10" stroke-width="2"/>
    <path id="Path_28275" data-name="Path 28275" d="M4402.193-5462.371v8.65c-14.8,8.727-30.755-.36-30.755-.36v-9.65" fill="none" stroke="#040f26" stroke-miterlimit="10" stroke-width="2"/>
    <path id="Path_28276" data-name="Path 28276" d="M4365.281-5465.415l22.526,7.535,21.805-7.138-21.265-6.543Z" fill="none" stroke="#040f26" stroke-miterlimit="10" stroke-width="2"/>
    <line id="Line_1022" data-name="Line 1022" y2="9.191" transform="translate(4408.53 -5464.519)" fill="none" stroke="#040f26" stroke-miterlimit="10" stroke-width="2"/>
    <path id="Path_28277" data-name="Path 28277" d="M4405.737-5453.09a3.867,3.867,0,0,0,5.767.09" fill="none" stroke="#040f26" stroke-miterlimit="10" stroke-width="2"/>
    <circle id="Ellipse_11570" data-name="Ellipse 11570" cx="8.38" cy="8.38" r="8.38" transform="translate(4402.047 -5425.331)" fill="none" stroke="#19afff" stroke-miterlimit="10" stroke-width="2"/>
    <path id="Path_28278" data-name="Path 28278" d="M4406.313-5417.116l2.993,3.409,6.679-5.653" fill="none" stroke="#19afff" stroke-linecap="round" stroke-miterlimit="10" stroke-width="2"/>
  </g>
</svg>