<svg xmlns="http://www.w3.org/2000/svg" width="75.811" height="67.102" viewBox="0 0 75.811 67.102">
  <g id="Group_6629" data-name="Group 6629" transform="translate(1.299 1.052)">
    <rect id="Rectangle_1875" data-name="Rectangle 1875" width="20.037" height="5.844" rx="2.922" transform="matrix(0.999, -0.054, 0.054, 0.999, 22.44, 1.075)" fill="none" stroke="#19afff" stroke-miterlimit="10" stroke-width="2"/>
    <path id="Union_8" data-name="Union 8" d="M0,4.761,1.96,2.613l-.28-.251A1.354,1.354,0,0,1,3.489.347L6.738,3.264A1.354,1.354,0,0,1,4.929,5.279L4.6,4.98,2.638,7.168Z" transform="translate(50.516 11.518)"/>
    <line id="Line_973" data-name="Line 973" x1="0.24" y1="6.077" transform="translate(27.769 6.585)" fill="none" stroke="#19afff" stroke-miterlimit="10" stroke-width="2"/>
    <line id="Line_974" data-name="Line 974" x1="0.394" y1="6.037" transform="translate(37.702 5.831)" fill="none" stroke="#19afff" stroke-miterlimit="10" stroke-width="2"/>
    <path id="Path_28129" data-name="Path 28129" d="M5555.1,4990.463a25.881,25.881,0,1,1-.705,41.3" transform="translate(-5534.822 -4973.674)" fill="none" stroke="#000" stroke-miterlimit="10" stroke-width="2"/>
    <rect id="Rectangle_1877" data-name="Rectangle 1877" width="10.018" height="13.298" rx="5.009" transform="translate(7.476 21.479) rotate(-64.832)" fill="none" stroke="#000" stroke-miterlimit="10" stroke-width="2"/>
    <rect id="Rectangle_1878" data-name="Rectangle 1878" width="11.068" height="20.619" rx="5.534" transform="translate(2.505 32.192) rotate(-68.259)" fill="none" stroke="#000" stroke-miterlimit="10" stroke-width="2"/>
    <rect id="Rectangle_1879" data-name="Rectangle 1879" width="11.068" height="20.619" rx="5.534" transform="translate(0 43.045) rotate(-68.259)" fill="none" stroke="#000" stroke-miterlimit="10" stroke-width="2"/>
    <rect id="Rectangle_1880" data-name="Rectangle 1880" width="8.432" height="17.983" rx="4.216" transform="matrix(0.37, -0.929, 0.929, 0.37, 2.646, 53.12)" fill="none" stroke="#000" stroke-miterlimit="10" stroke-width="2"/>
    <path id="Path_28130" data-name="Path 28130" d="M5570.5,4994.462s7.513-1.668,15.027,5.01c3.937,3.5,6.648,9.693,5.009,19.2l-18.367-5.845" transform="translate(-5537.481 -4975.123)" fill="none" stroke="#19afff" stroke-linecap="round" stroke-miterlimit="10" stroke-width="2"/>
    <path id="Path_28132" data-name="Path 28132" d="M5597.888,5001.035s-1.012-21.54,3.163-24.878,9.183-.835,9.183-.835,2.5,35.9,0,44.248-13.357,21.707-36.733,15.862" transform="translate(-5537.977 -4971.844)" fill="none" stroke="#000" stroke-miterlimit="10" stroke-width="2"/>
  </g>
</svg>