<svg xmlns="http://www.w3.org/2000/svg" width="258.824" height="36.174" viewBox="0 0 258.824 36.174">
  <g id="Group_19" data-name="Group 19" transform="translate(-737 864.017)">
    <g id="Group_1" data-name="Group 1" transform="translate(737 -864.017)">
      <path id="Path_1" data-name="Path 1" d="M1182.943,700c.4.209.8.419,1.2.626.142.073.287.138.5.241l-20.672,11.3a2.49,2.49,0,0,0,.171.219c.68.683,1.366,1.361,2.041,2.048a.309.309,0,0,0,.441.06q5.035-2.869,10.076-5.728,5.3-3.01,10.593-6.022a.432.432,0,0,1,.47-.011q3.667,1.945,7.34,3.879l7.766,4.1,4.059,2.143c.065.034.124.079.235.151l-14.651,15.2-2.882-2.655,13.148-12.771c-.6-.343-1.146-.658-1.695-.97q-6.475-3.69-12.947-7.386a.52.52,0,0,0-.613.047q-7.108,4.292-14.221,8.577-3.749,2.261-7.5,4.528a.368.368,0,0,1-.548-.069q-2.534-2.557-5.086-5.1c-.078-.078-.151-.162-.255-.275.413-.22.792-.424,1.173-.625l14.342-7.551q3.622-1.908,7.243-3.821a2.373,2.373,0,0,0,.211-.141Z" transform="translate(-1159.919 -700)" fill="#00afff"/>
      <path id="Path_3" data-name="Path 3" d="M1332.407,842.117c-.61.524-1.181,1.016-1.754,1.506l-8.487,7.255q-2.908,2.486-5.816,4.972c-.32.273-.316.278-.027.567q3.187,3.187,6.376,6.372a2.467,2.467,0,0,0,.317.228c-.106.128-.153.2-.21.252-.686.662-1.378,1.32-2.061,1.986-.136.133-.223.152-.368.006q-4.64-4.679-9.288-9.35c-.026-.026-.046-.058-.093-.119l17.2-13.818c-.4-.26-.751-.493-1.106-.72-.756-.484-1.521-.953-2.266-1.453a.5.5,0,0,0-.67.006q-6.3,4.342-12.614,8.664l-4.837,3.318c-.084.058-.172.111-.283.181l-2.065-2.462c.09-.067.157-.127.233-.174l12.727-8.027q3.356-2.116,6.707-4.239a.5.5,0,0,1,.632,0q3.738,2.439,7.489,4.857C1332.216,841.975,1332.289,842.032,1332.407,842.117Z" transform="translate(-1296.16 -829.19)" fill="#00afff"/>
      <path id="Path_4" data-name="Path 4" d="M2995.985,938.765c1.056,0,1.985-.024,2.909.024.151.008.355.31.418.512,1.03,3.313,2.041,6.632,3.056,9.949.052.17.064.388.177.495.178.167.446.378.64.347.175-.028.347-.337.439-.556a1.619,1.619,0,0,0,.023-.6q0-3.472,0-6.945a3.249,3.249,0,0,1,2.966-3.362,3.836,3.836,0,0,1,4.64,2.915c.831,2.536,1.648,5.077,2.5,7.607.142.424.173,1.081.878.957s.5-.75.5-1.2c.014-3.139.021-6.277,0-9.416,0-.591.177-.8.762-.756a17.321,17.321,0,0,0,1.8.005c.44-.015.586.178.58.6-.016,1.113-.006,2.226,0,3.339a1.082,1.082,0,0,0,.173.643,4.576,4.576,0,0,1,.194-.524,22.14,22.14,0,0,1,1.333-2.52,3.838,3.838,0,0,1,3.106-1.723c1.954-.061,3.913-.041,5.866.038a4.04,4.04,0,0,1,3.13,1.928,9.376,9.376,0,0,1,1.48,6.683,7.113,7.113,0,0,1-2.026,4.535,4.125,4.125,0,0,1-2.938,1.235c-1.647.019-3.295-.019-4.941.014a4.588,4.588,0,0,1-4.342-2.576c-.355-.631-.6-1.321-1.037-1.993,0,.4-.017.8,0,1.2.073,1.428-.3,2.642-1.742,3.2-1.647.64-3.318.74-4.663-.612a6.15,6.15,0,0,1-1.4-2.3c-.755-2.231-1.363-4.512-2.031-6.773-.069-.234-.146-.467-.216-.7-.125-.416-.342-.77-.829-.707s-.6.49-.6.907c-.014,1.335-.008,2.671-.008,4.007,0,1.224,0,2.448-.005,3.673a2.475,2.475,0,0,1-1.277,2.275c-1.773,1-4.419,1.139-5.716-1.458a25.458,25.458,0,0,1-1.392-4.02c-.747-2.469-1.445-4.952-2.162-7.43C2996.155,939.434,2996.094,939.179,2995.985,938.765Zm29.926,2.719c-.489,0-.98.024-1.468,0a2.2,2.2,0,0,0-2.326,1.439,6.6,6.6,0,0,0,.175,5.85,2.122,2.122,0,0,0,2.066,1.205c1.045-.022,2.09-.017,3.135,0a2.112,2.112,0,0,0,2.052-1.223,6.559,6.559,0,0,0,.26-5.665,2.3,2.3,0,0,0-2.427-1.605C3026.89,941.508,3026.4,941.484,3025.911,941.484Zm-7.7,6.069.142-.01v-3.269l-.142,0Z" transform="translate(-2816.237 -926.899)" fill="#00afff"/>
      <path id="Path_5" data-name="Path 5" d="M2640.912,952.724c-.8,0-1.6-.011-2.4,0a4.464,4.464,0,0,1-4-2.231,9.821,9.821,0,0,1,.26-10.245,4.323,4.323,0,0,1,3.4-1.97c1.843-.075,3.694-.084,5.536.007a4.524,4.524,0,0,1,3.963,2.962,9.62,9.62,0,0,1-.24,9.095,4.395,4.395,0,0,1-4.179,2.382C2642.47,952.707,2641.69,952.724,2640.912,952.724Zm-.01-3.015v0c.6,0,1.2.012,1.8,0a2,2,0,0,0,1.6-.823,6.536,6.536,0,0,0,.189-6.641,2.16,2.16,0,0,0-1.909-1.018c-1.09.014-2.18.021-3.268,0a2.114,2.114,0,0,0-2.1,1.264,6.558,6.558,0,0,0,.085,6.028,2.081,2.081,0,0,0,2.067,1.2C2639.878,949.692,2640.39,949.709,2640.9,949.709Z" transform="translate(-2501.905 -926.639)" fill="#00afff"/>
      <path id="Path_6" data-name="Path 6" d="M2419.942,953.025c-.712,0-1.425-.024-2.135.005a4.458,4.458,0,0,1-4.449-2.6,9.553,9.553,0,0,1,.332-9.664,4.013,4.013,0,0,1,3.351-2.144c2-.074,4-.066,5.994.021a4.049,4.049,0,0,1,3.079,1.894,9.815,9.815,0,0,1,.145,10.471,4.414,4.414,0,0,1-3.78,2.017C2421.633,953.031,2420.787,953.025,2419.942,953.025Zm.065-3.015c.534,0,1.068-.009,1.6,0a1.953,1.953,0,0,0,1.848-.991,6.333,6.333,0,0,0,.156-6.362,2.047,2.047,0,0,0-1.971-1.137c-1.045.01-2.093.039-3.135-.008a2.314,2.314,0,0,0-2.422,1.614,6.708,6.708,0,0,0,.128,5.443,2.229,2.229,0,0,0,2.329,1.445C2419.026,949.982,2419.517,950.011,2420.007,950.01Z" transform="translate(-2310.439 -926.941)" fill="#00afff"/>
      <path id="Path_7" data-name="Path 7" d="M2541.56,952.765c-1.313,0-2.627-.013-3.94.008-.489.008-.691-.167-.666-.66a11.694,11.694,0,0,0,0-1.468c-.044-.581.173-.779.762-.771,2.2.028,4.408.017,6.612.007a1.307,1.307,0,0,0,1.487-1.344,1.192,1.192,0,0,0-1.316-1.39c-2.249-.01-4.5-.024-6.745.008-.615.009-.848-.181-.8-.8a13.034,13.034,0,0,0,0-1.669c-.028-.527.188-.7.7-.691,2.248.019,4.5.016,6.745,0a1.266,1.266,0,0,0,1.409-1.462,1.281,1.281,0,0,0-1.412-1.271c-2.226-.008-4.453-.02-6.679.008-.581.007-.812-.168-.77-.759.04-.554.018-1.113.007-1.669-.007-.381.126-.57.542-.568,2.6.011,5.21-.04,7.814.023a4.009,4.009,0,0,1,3.751,3.9,4.895,4.895,0,0,1-.659,3.077.893.893,0,0,0,.067.705,5,5,0,0,1-.285,5.258,3.253,3.253,0,0,1-2.821,1.515C2544.1,952.769,2542.829,952.764,2541.56,952.765Z" transform="translate(-2418.515 -926.681)" fill="#00afff"/>
      <path id="Path_8" data-name="Path 8" d="M3292.782,947.24l3.474,1.334c.6.231,1.215.438,1.8.706a.764.764,0,0,1,.418.505c.042.929.02,1.86.02,2.96l-9.119-3.582c0,1.049-.031,1.953.011,2.854.028.584-.162.8-.755.763-.62-.044-1.247.017-1.867-.03-.172-.013-.47-.247-.47-.38a53.091,53.091,0,0,1,.118-5.395,3.186,3.186,0,0,1,3.433-2.959c1.291-.018,2.582,0,3.873-.009.944-.008,1.482-.511,1.473-1.346a1.32,1.32,0,0,0-1.508-1.39c-2.225-.006-4.451-.021-6.676.01-.6.008-.793-.185-.748-.766a15.092,15.092,0,0,0,.005-1.668c-.012-.388.115-.566.533-.564,2.648.012,5.3-.039,7.945.026a3.689,3.689,0,0,1,3.544,3.238,5.089,5.089,0,0,1-.695,3.908,3.439,3.439,0,0,1-2.873,1.555c-.635.016-1.271,0-1.906,0Z" transform="translate(-3067.731 -926.685)" fill="#00afff"/>
      <path id="Path_9" data-name="Path 9" d="M2326.458,947.232l4.466,1.722c1.629.627,1.289.278,1.327,1.9.014.594,0,1.189,0,1.919l-9.209-3.617c0,1.048-.04,1.932.012,2.811.04.664-.213.866-.841.814-.553-.045-1.112-.018-1.669-.009-.365.006-.527-.156-.524-.52.013-1.713-.046-3.431.048-5.14a3.234,3.234,0,0,1,3.262-3.085c1.335-.036,2.671-.008,4.006-.017,1.011-.007,1.529-.469,1.531-1.351,0-.908-.53-1.386-1.564-1.388-2.137,0-4.273,0-6.41,0-.871,0-.872,0-.874-.9,0-.512.01-1.024,0-1.536-.009-.4.162-.551.561-.549,2.6.011,5.21-.039,7.812.024a3.481,3.481,0,0,1,3.37,2.494,5.021,5.021,0,0,1-.488,4.661,3.326,3.326,0,0,1-2.874,1.547c-.637.011-1.275,0-1.913,0Z" transform="translate(-2230.563 -926.687)" fill="#00afff"/>
      <path id="Path_10" data-name="Path 10" d="M3497.317,952.8c-1.313,0-2.627-.015-3.94.008-.5.009-.749-.118-.708-.674a11.4,11.4,0,0,0,0-1.668c-.041-.556.207-.673.708-.668,2.248.02,4.5.011,6.745.007a1.283,1.283,0,0,0,1.441-1.366,1.266,1.266,0,0,0-1.421-1.391c-1.357-.012-2.716,0-4.073,0a3.658,3.658,0,0,1-3.988-3.245,4.822,4.822,0,0,1,.99-4.268,3.519,3.519,0,0,1,2.724-1.2c2.56-.024,5.12,0,7.68-.017.469,0,.637.162.615.623a16.334,16.334,0,0,0,0,1.736c.03.516-.2.641-.671.638q-3.406-.025-6.812,0a1.363,1.363,0,0,0-1.333,1.921,1.24,1.24,0,0,0,1.314.817c1.4,0,2.807.045,4.207-.01a3.763,3.763,0,0,1,3.931,3.56,5,5,0,0,1-.9,3.864,3.251,3.251,0,0,1-2.64,1.339c-1.291.01-2.582,0-3.873,0Z" transform="translate(-3245.962 -926.718)" fill="#00afff"/>
      <path id="Path_11" data-name="Path 11" d="M2066.692,952.8c-1.313,0-2.625-.015-3.937.007-.493.008-.684-.176-.661-.663a16.452,16.452,0,0,0,0-1.668c-.03-.536.2-.684.708-.679,2.225.021,4.449.011,6.674.008.974,0,1.471-.479,1.469-1.4,0-.886-.485-1.354-1.439-1.362-1.312-.01-2.628-.063-3.936.009-2.654.147-4.081-1.743-4.221-4.062a4.843,4.843,0,0,1,.821-3.1,3.512,3.512,0,0,1,3.015-1.564c2.535-.031,5.072,0,7.607-.019.5,0,.677.18.655.664a14.965,14.965,0,0,0,0,1.6c.033.543-.162.742-.723.735-2.247-.025-4.494-.015-6.74-.007a1.278,1.278,0,0,0-1.394,1.218,1.253,1.253,0,0,0,1.344,1.513c1.4.021,2.8,0,4.2.008a3.637,3.637,0,0,1,3.86,2.984,5.421,5.421,0,0,1-.221,3.463,3.46,3.46,0,0,1-3.413,2.31C2069.139,952.8,2067.915,952.8,2066.692,952.8Z" transform="translate(-2006.438 -926.713)" fill="#00afff"/>
      <path id="Path_12" data-name="Path 12" d="M3391.525,941.621l9.183-3.629c0,.765.006,1.413,0,2.062-.015,1.607.162,1.23-1.2,1.816-2.306,1-4.623,1.968-6.926,2.972-.23.1-.4.353-.59.536.2.2.367.485.611.594q3.746,1.669,7.518,3.281a.832.832,0,0,1,.591.906c-.027.837-.008,1.676-.008,2.671l-9.239-3.632c0,.948-.031,1.74.01,2.528.03.594-.144.862-.781.81a17.128,17.128,0,0,0-1.8-.008c-.389.01-.56-.131-.559-.542q.012-6.706,0-13.413c0-.416.173-.544.563-.534.667.018,1.335.023,2,0,.449-.017.583.184.573.6-.018.711-.008,1.423,0,2.135C3391.473,941.007,3391.5,941.242,3391.525,941.621Z" transform="translate(-3156.177 -926.44)" fill="#00afff"/>
      <path id="Path_13" data-name="Path 13" d="M2868.229,952.78c-1.024,0-2.048.008-3.071,0a4.386,4.386,0,0,1-3.687-1.939,7.992,7.992,0,0,1-1.455-4.433,9.658,9.658,0,0,1,1.251-5.706,4.742,4.742,0,0,1,4.327-2.4c2.025.014,4.05.02,6.074-.008.555-.008.76.168.722.723a13.875,13.875,0,0,0,0,1.668c.025.478-.182.612-.631.608-1.869-.016-3.739.014-5.608-.014a2.23,2.23,0,0,0-2.236,1.383,6.43,6.43,0,0,0,.192,5.965,2.119,2.119,0,0,0,2.033,1.151c1.8-.021,3.606.025,5.407-.022.695-.018.911.216.846.879a10.346,10.346,0,0,0,0,1.534c.025.464-.158.632-.62.624C2870.588,952.766,2869.408,952.78,2868.229,952.78Z" transform="translate(-2698.417 -926.695)" fill="#00afff"/>
      <path id="Path_14" data-name="Path 14" d="M2168.429,938.334q1.667,0,3.336,0a3.957,3.957,0,0,1,4.29,4.154,4.849,4.849,0,0,1-.831,3.032,3.38,3.38,0,0,1-2.878,1.535c-.957.011-1.913,0-2.87,0-1.828.008-2.509.693-2.5,2.5.006.889-.009,1.779.011,2.668.01.428-.146.607-.581.592-.622-.021-1.246-.015-1.868,0-.381.008-.583-.123-.579-.535.017-1.69-.036-3.383.049-5.069a3.28,3.28,0,0,1,3.283-3.143c1.333-.036,2.669-.007,4-.016,1.027-.007,1.519-.449,1.521-1.349,0-.932-.5-1.388-1.55-1.39-2.18,0-4.36-.017-6.539.01-.571.007-.82-.151-.776-.751a16.161,16.161,0,0,0,.006-1.667c-.013-.433.174-.585.6-.579C2165.849,938.345,2167.139,938.334,2168.429,938.334Z" transform="translate(-2095.345 -926.731)" fill="#00afff"/>
      <path id="Path_15" data-name="Path 15" d="M2750.424,947.045c0-1.669-.018-3.337.01-5.005.009-.55-.175-.759-.728-.73-.643.034-1.29,0-1.935.011-.38.009-.586-.107-.576-.527q.025-.967,0-1.935c-.01-.42.2-.527.576-.526q4.2.013,8.409,0c.423,0,.615.141.6.577-.018.623-.015,1.246,0,1.869.008.4-.173.556-.567.544-.534-.017-1.068,0-1.6,0-1.071,0-1.072,0-1.073,1.043,0,3.2-.019,6.407.015,9.611.008.682-.194.927-.869.856a6.933,6.933,0,0,0-1.4,0c-.658.065-.9-.143-.879-.844C2750.458,950.339,2750.424,948.691,2750.424,947.045Z" transform="translate(-2600.68 -926.733)" fill="#00afff"/>
      <path id="Path_16" data-name="Path 16" d="M2830.456,945.575c0,2.157-.013,4.315.01,6.472.006.536-.141.774-.711.738-.62-.039-1.245-.021-1.868-.006-.4.01-.55-.151-.549-.553q.012-6.705,0-13.411c0-.423.189-.535.571-.525.622.016,1.247.032,1.867,0,.525-.031.7.158.691.684C2830.442,941.172,2830.456,943.374,2830.456,945.575Z" transform="translate(-2670.117 -926.691)" fill="#00afff"/>
    </g>
  </g>
</svg>
