<svg xmlns="http://www.w3.org/2000/svg" width="63.116" height="67.021" viewBox="0 0 63.116 67.021">
  <g id="Group_6653" data-name="Group 6653" transform="translate(-7390.258 -5086.558)">
    <g id="Group_6645" data-name="Group 6645" transform="translate(7420.29 5097.563)">
      <path id="Path_28157" data-name="Path 28157" d="M7440.941,5114.929c.994,11.926-9.567,12.175-9.567,12.175-5.775-.373-9.068-3.789-9.688-9.628-.625-5.87,3.478-11.989,3.478-11.989a10.516,10.516,0,0,0,11.675.374A13.35,13.35,0,0,1,7440.941,5114.929Z" transform="translate(-7417.523 -5095.928)" fill="none" stroke="#000" stroke-miterlimit="10" stroke-width="2"/>
      <path id="Path_28158" data-name="Path 28158" d="M7431.143,5146.477h-7.687" transform="translate(-7417.355 -5092.194)" fill="none" stroke="#000" stroke-miterlimit="10" stroke-width="2"/>
      <path id="Path_28158-2" data-name="Path 28158" d="M7419.1,5130.24a25.251,25.251,0,0,1,7.594-2.522v-3.044" transform="translate(-7417.752 -5094.18)" fill="none" stroke="#000" stroke-miterlimit="10" stroke-width="2"/>
      <path id="Path_28159" data-name="Path 28159" d="M7429.646,5148.464h16.437a2.793,2.793,0,0,0,2.792-2.792v-5.656c-.633-6.1-6.364-9.3-9.985-10.894a21.161,21.161,0,0,0-4.4-1.405v-3.044" transform="translate(-7416.791 -5094.18)" fill="none" stroke="#000" stroke-miterlimit="10" stroke-width="2"/>
      <path id="Path_28160" data-name="Path 28160" d="M7441.594,5118.713c2.794-2.609,5.962-10.684.372-17.828s-18.884-2.918-18.884-2.918l-.186,3.164s-5.032,2.547-5.032,10.622c0,5.592,4.534,9.192,4.534,9.192" transform="translate(-7417.864 -5096.727)" fill="none" stroke="#000" stroke-miterlimit="10" stroke-width="2"/>
    </g>
    <path id="Path_28184" data-name="Path 28184" d="M7400,5115.147l4.566,1.857a21.05,21.05,0,0,0,4.547-2.149s3.2,4.775,2.715,9.356c-.486,4.557-3.055,7.222-7.563,7.513,0,0-8.241-.193-7.464-9.5A10.417,10.417,0,0,1,7400,5115.147Z" transform="translate(0.501 2.488)" fill="none" stroke="#000" stroke-miterlimit="10" stroke-width="2"/>
    <path id="Path_28185" data-name="Path 28185" d="M7401.631,5130.133v2.376a16.465,16.465,0,0,0-3.432,1.1c-2.827,1.241-6.449,3.742-6.942,8.5v6.592h27.583v-6.592c-.825-7.951-10.375-9.6-10.375-9.6v-2.376" transform="translate(0 3.88)" fill="none" stroke="#000" stroke-miterlimit="10" stroke-width="2"/>
    <path id="Path_28186" data-name="Path 28186" d="M7397.743,5133.377l4.068,4.211a3.885,3.885,0,0,0,5.516.078l4.231-4.145" transform="translate(0.592 4.175)" fill="none" stroke="#000" stroke-miterlimit="10" stroke-width="2"/>
    <path id="Path_28187" data-name="Path 28187" d="M7397.631,5128.549a17.463,17.463,0,0,1-3.543-1.5v-9.23c0-5.394,4.643-9.765,10.37-9.765h0c5.727,0,10.371,4.372,10.371,9.765v9.23s-1.433.635-3.446,1.271" transform="translate(0.258 1.868)" fill="none" stroke="#000" stroke-miterlimit="10" stroke-width="2"/>
    <path id="Path_28188" data-name="Path 28188" d="M7429.063,5131.166l-2.419,9.434,3.309,4.4a.482.482,0,0,0,.766,0l3.333-4.308-2.569-9.525Z" transform="translate(3.225 3.974)" fill="none" stroke="#19afff" stroke-miterlimit="10" stroke-width="2"/>
    <rect id="Rectangle_1887" data-name="Rectangle 1887" width="1.696" height="0.165" transform="translate(7432.635 5131.367)" fill="none" stroke="#19afff" stroke-miterlimit="10" stroke-width="2"/>
    <path id="Path_28189" data-name="Path 28189" d="M7399.185,5100.447h3.88a1.359,1.359,0,0,1,.75.225l5.754,3.809a.7.7,0,0,0,1.083-.568l.045-2.138a1.357,1.357,0,0,1,1.357-1.328h1.954a2.054,2.054,0,0,0,2.054-2.055v-8.781a2.054,2.054,0,0,0-2.054-2.053h-14.823a2.054,2.054,0,0,0-2.054,2.053v8.781A2.055,2.055,0,0,0,7399.185,5100.447Z" transform="translate(0.535)" fill="none" stroke="#19afff" stroke-miterlimit="10" stroke-width="2"/>
    <path id="Path_28190" data-name="Path 28190" d="M7410.026,5091.48h-8" transform="translate(0.981 0.357)" fill="none" stroke="#19afff" stroke-miterlimit="10" stroke-width="2"/>
    <path id="Path_28191" data-name="Path 28191" d="M7410.026,5094.834h-8" transform="translate(0.981 0.663)" fill="none" stroke="#19afff" stroke-miterlimit="10" stroke-width="2"/>
  </g>
</svg>