<svg xmlns="http://www.w3.org/2000/svg" width="77.876" height="77.093" viewBox="0 0 77.876 77.093">
  <g id="Group_6611" data-name="Group 6611" transform="translate(1.542 1)">
    <path id="Path_9526" data-name="Path 9526" d="M5196.888,5663.213v-11.155a1.977,1.977,0,0,0-1.976-1.977h0a16.358,16.358,0,0,1-16.358-16.358v-7.176a3.716,3.716,0,0,1,3.717-3.716h0a3.717,3.717,0,0,1,3.718,3.716v6.174a8.937,8.937,0,0,0,8.937,8.938h10.386" transform="translate(-5168.314 -5621.564)" fill="none" stroke="#00afff" stroke-miterlimit="10" stroke-width="2"/>
    <path id="Path_9527" data-name="Path 9527" d="M5223.173,5663.213v-10.378a2.754,2.754,0,0,1,2.753-2.753h0a15.581,15.581,0,0,0,15.581-15.582v-7.952a3.716,3.716,0,0,0-3.717-3.716h0a3.716,3.716,0,0,0-3.717,3.716v6.174a8.938,8.938,0,0,1-8.937,8.938h-10.385" transform="translate(-5177.342 -5621.564)" fill="none" stroke="#00afff" stroke-miterlimit="10" stroke-width="2"/>
    <ellipse id="Ellipse_11539" data-name="Ellipse 11539" cx="7.486" cy="7.486" rx="7.486" ry="7.486" transform="translate(29.509 0)" fill="none" stroke="#00afff" stroke-miterlimit="10" stroke-width="2"/>
    <path id="Path_9528" data-name="Path 9528" d="M5164.812,5691.571l6.275-14.038,39.886.083,22.709-.249,5.945,13.874-23.494-.042-5.078-12.057-5.45,12.429Z" transform="translate(-5164.812 -5635.471)" fill="none" stroke="#000" stroke-miterlimit="10" stroke-width="2"/>
    <path id="Path_9529" data-name="Path 9529" d="M5173.013,5693.018v18.168h40.134v-31.38" transform="translate(-5166.902 -5636.092)" fill="none" stroke="#000" stroke-miterlimit="10" stroke-width="2"/>
    <path id="Path_9530" data-name="Path 9530" d="M5249.347,5696.211V5715.2h-22.462" transform="translate(-5180.64 -5640.276)" fill="none" stroke="#000" stroke-miterlimit="10" stroke-width="2"/>
    <ellipse id="Ellipse_11540" data-name="Ellipse 11540" cx="1.652" cy="1.652" rx="1.652" ry="1.652" transform="translate(27.22 68.57)" fill="none" stroke="#000" stroke-miterlimit="10" stroke-width="2"/>
    <ellipse id="Ellipse_11541" data-name="Ellipse 11541" cx="1.652" cy="1.652" rx="1.652" ry="1.652" transform="translate(35.68 68.57)" fill="none" stroke="#000" stroke-miterlimit="10" stroke-width="2"/>
  </g>
</svg>