<svg xmlns="http://www.w3.org/2000/svg" width="48.508" height="65.174" viewBox="0 0 48.508 65.174">
  <g id="Group_6775" data-name="Group 6775" transform="translate(-265 -2964.419)">
    <g id="Group_6646" data-name="Group 6646" transform="translate(-6644.976 -1989.422)">
      <g id="Group_6645" data-name="Group 6645" transform="translate(6910.976 4954.843)">
        <path id="Path_28157" data-name="Path 28157" d="M6923.277,4964a11.15,11.15,0,0,0,12.382-.395s4.351,6.488,3.688,12.712c-.658,6.193-4.149,9.815-10.275,10.212,0,0-11.2-.264-10.145-12.912A14.161,14.161,0,0,1,6923.277,4964Z" transform="translate(-6909.737 -4953.466)" fill="none" stroke="#040f26" stroke-miterlimit="10" stroke-width="2"/>
        <path id="Path_28158" data-name="Path 28158" d="M6935.9,5004.593h-8.151" transform="translate(-6908.341 -4947.024)" fill="none" stroke="#040f26" stroke-miterlimit="10" stroke-width="2"/>
        <path id="Path_28158-2" data-name="Path 28158" d="M6932.184,4982.79v3.229s10.508,1.426,14.078,8.392" transform="translate(-6907.644 -4950.451)" fill="none" stroke="#040f26" stroke-miterlimit="10" stroke-width="2"/>
        <path id="Path_28159" data-name="Path 28159" d="M6926.229,4982.79v3.229a22.276,22.276,0,0,0-4.663,1.491c-3.84,1.686-9.919,5.084-10.59,11.553v6a2.961,2.961,0,0,0,2.961,2.961h17.431" transform="translate(-6910.976 -4950.451)" fill="none" stroke="#040f26" stroke-miterlimit="10" stroke-width="2"/>
        <path id="Path_28160" data-name="Path 28160" d="M6939.49,4980.528s4.807-3.819,4.807-9.75c0-8.563-5.335-11.264-5.335-11.264l-.2-3.355s-14.1-4.481-20.027,3.1-2.569,16.139.395,18.906" transform="translate(-6910.272 -4954.843)" fill="none" stroke="#040f26" stroke-miterlimit="10" stroke-width="2"/>
        <path id="Path_28161" data-name="Path 28161" d="M6920.287,4986.943l5.525,5.724a5.283,5.283,0,0,0,7.469.133l.028-.028,5.752-5.632" transform="translate(-6909.514 -4949.798)" fill="none" stroke="#040f26" stroke-miterlimit="10" stroke-width="2"/>
      </g>
      <circle id="Ellipse_11553" data-name="Ellipse 11553" cx="9.723" cy="9.723" r="9.723" transform="translate(6938.038 4998.57)" fill="none" stroke="#19afff" stroke-miterlimit="10" stroke-width="2"/>
      <path id="Path_28162" data-name="Path 28162" d="M6938.619,5001.106l2.412,3.349,6.307-4.33" transform="translate(5.501 5.959)" fill="none" stroke="#19afff" stroke-linecap="round" stroke-linejoin="round" stroke-miterlimit="10" stroke-width="2"/>
    </g>
  </g>
</svg>