<svg xmlns="http://www.w3.org/2000/svg" width="94.158" height="56.507" viewBox="0 0 94.158 56.507">
  <g id="Group_6682" data-name="Group 6682" transform="translate(-8027.278 -5996.967)">
    <path id="Rectangle_1892" data-name="Rectangle 1892" d="M8041.779,5997.967h64.49a3.827,3.827,0,0,1,3.827,3.827v44.694h-72.145v-44.694A3.827,3.827,0,0,1,8041.779,5997.967Z" fill="none" stroke="#040f26" stroke-miterlimit="10" stroke-width="2"/>
    <path id="Rectangle_1892-2" data-name="Rectangle 1892" d="M8028.278,6046.518h92.158c0,3.289-3.007,5.956-6.716,5.956h-78.727c-3.709,0-6.715-2.667-6.715-5.956Z" fill="none" stroke="#040f26" stroke-miterlimit="10" stroke-width="2"/>
    <rect id="Rectangle_1903" data-name="Rectangle 1903" width="21.283" height="11.085" transform="translate(8045.946 6009.243)" fill="none" stroke="#040f26" stroke-miterlimit="10" stroke-width="2"/>
    <path id="Rectangle_1904" data-name="Rectangle 1904" d="M2.34,0H12.466a2.34,2.34,0,0,1,2.34,2.34V9.085a0,0,0,0,1,0,0H0a0,0,0,0,1,0,0V2.34A2.34,2.34,0,0,1,2.34,0Z" transform="translate(8083.104 6018.056)" fill="none" stroke="#19afff" stroke-miterlimit="10" stroke-width="2"/>
    <line id="Line_1019" data-name="Line 1019" x2="23.755" transform="translate(8044.616 6024.984)" fill="none" stroke="#040f26" stroke-miterlimit="10" stroke-width="2"/>
    <line id="Line_1020" data-name="Line 1020" x2="21.302" transform="translate(8044.616 6029.861)" fill="none" stroke="#040f26" stroke-miterlimit="10" stroke-width="2"/>
    <line id="Line_1021" data-name="Line 1021" x2="21.302" transform="translate(8044.616 6035.182)" fill="none" stroke="#040f26" stroke-miterlimit="10" stroke-width="2"/>
    <circle id="Ellipse_11569" data-name="Ellipse 11569" cx="3.99" cy="3.99" r="3.99" transform="translate(8086.517 6007.747)" fill="none" stroke="#19afff" stroke-miterlimit="10" stroke-width="2"/>
  </g>
</svg>