<svg xmlns="http://www.w3.org/2000/svg" width="42.962" height="61.5" viewBox="0 0 42.962 61.5">
  <g id="Group_6649" data-name="Group 6649" transform="translate(-6845.672 -5148.278)">
    <path id="Path_28173" data-name="Path 28173" d="M6865.224,5161.679l5.151,2.1a23.8,23.8,0,0,0,5.129-2.424s3.613,5.386,3.063,10.554c-.547,5.14-3.445,8.146-8.531,8.476,0,0-9.3-.22-8.421-10.719A11.753,11.753,0,0,1,6865.224,5161.679Z" transform="translate(-3.54 -3.704)" fill="none" stroke="#000" stroke-miterlimit="10" stroke-width="2"/>
    <path id="Path_28174" data-name="Path 28174" d="M6889.03,5195.912c-3.458-4.048-9.228-5.044-9.228-5.044v-3.333" transform="translate(-9.138 -11.737)" fill="none" stroke="#000" stroke-miterlimit="10" stroke-width="2"/>
    <path id="Path_28175" data-name="Path 28175" d="M6864.593,5187.645v3.256a18.571,18.571,0,0,0-3.871,1.237,14.886,14.886,0,0,0-5.364,3.816" transform="translate(-1.638 -11.771)" fill="none" stroke="#000" stroke-miterlimit="10" stroke-width="2"/>
    <path id="Path_28176" data-name="Path 28176" d="M6863.316,5194.237l2.614,1.771c1.69.652,8.48.667,10.22.032l2.751-1.742" transform="translate(-4.08 -13.793)" fill="none" stroke="#000" stroke-miterlimit="10" stroke-width="2"/>
    <path id="Path_28177" data-name="Path 28177" d="M6861.019,5172.416a25.191,25.191,0,0,1-4.194-1.71v-10.413c0-6.083,5.238-11.016,11.7-11.016h0c6.46,0,11.7,4.933,11.7,11.016v10.413a41,41,0,0,1-3.886,1.434" transform="translate(-2.088 0.001)" fill="none" stroke="#000" stroke-miterlimit="10" stroke-width="2"/>
    <rect id="Rectangle_1886" data-name="Rectangle 1886" width="40.962" height="20.697" transform="translate(6846.672 5184.496)" fill="none" stroke="#19afff" stroke-miterlimit="10" stroke-width="2"/>
    <path id="Path_28179" data-name="Path 28179" d="M1.544-.12A1.607,1.607,0,0,1,3.088,1.46,1.6,1.6,0,0,1,1.544,3.031,1.6,1.6,0,0,1,0,1.46,1.607,1.607,0,0,1,1.544-.12Z" transform="translate(6865.76 5192.438)" fill="none" stroke="#000" stroke-width="2"/>
    <path id="Path_28178" data-name="Path 28178" d="M-1.212,0H41.725" transform="translate(6846.904 5208.778)" fill="none" stroke="#19afff" stroke-width="2"/>
  </g>
</svg>